<mxfile host="app.diagrams.net" modified="2022-06-14T12:17:30.402Z" agent="5.0 (Windows NT 10.0; Win64; x64) AppleWebKit/537.36 (KHTML, like Gecko) Chrome/102.0.5005.115 Safari/537.36" etag="B2FsJ9AYvpcJJ_ecrOIT" version="18.0.3" type="github">
  <diagram id="BUf-x5xMnr2xdCKZconj" name="Page-1">
    <mxGraphModel dx="716" dy="372" grid="1" gridSize="10" guides="1" tooltips="1" connect="1" arrows="1" fold="1" page="1" pageScale="1" pageWidth="850" pageHeight="1100" math="0" shadow="0">
      <root>
        <mxCell id="0" />
        <mxCell id="1" parent="0" />
        <mxCell id="DdYxN2vuMNUUhJrSTEX3-8" value="&lt;span style=&quot;font-family: &amp;quot;Times New Roman&amp;quot;, &amp;quot;serif&amp;quot;;&quot;&gt;&lt;font style=&quot;font-size: 16px;&quot;&gt;Home View&lt;/font&gt;&lt;/span&gt;" style="html=1;" vertex="1" parent="1">
          <mxGeometry x="350" y="160" width="150" height="80" as="geometry" />
        </mxCell>
        <mxCell id="DdYxN2vuMNUUhJrSTEX3-16" value="Carousel&amp;nbsp;" style="rounded=1;whiteSpace=wrap;html=1;fontSize=12;" vertex="1" parent="1">
          <mxGeometry x="170" y="110" width="90" height="50" as="geometry" />
        </mxCell>
        <mxCell id="DdYxN2vuMNUUhJrSTEX3-17" value="Chart" style="rounded=1;whiteSpace=wrap;html=1;fontSize=12;" vertex="1" parent="1">
          <mxGeometry x="170" y="175" width="90" height="50" as="geometry" />
        </mxCell>
        <mxCell id="DdYxN2vuMNUUhJrSTEX3-18" value="Progress bar" style="rounded=1;whiteSpace=wrap;html=1;fontSize=12;" vertex="1" parent="1">
          <mxGeometry x="170" y="240" width="90" height="50" as="geometry" />
        </mxCell>
        <mxCell id="DdYxN2vuMNUUhJrSTEX3-19" value="" style="endArrow=none;html=1;rounded=0;fontSize=12;entryX=0;entryY=0.5;entryDx=0;entryDy=0;" edge="1" parent="1" target="DdYxN2vuMNUUhJrSTEX3-8">
          <mxGeometry width="50" height="50" relative="1" as="geometry">
            <mxPoint x="260" y="270" as="sourcePoint" />
            <mxPoint x="310" y="220" as="targetPoint" />
          </mxGeometry>
        </mxCell>
        <mxCell id="DdYxN2vuMNUUhJrSTEX3-20" value="" style="endArrow=none;html=1;rounded=0;fontSize=12;exitX=1;exitY=0.5;exitDx=0;exitDy=0;entryX=0;entryY=0.5;entryDx=0;entryDy=0;" edge="1" parent="1" source="DdYxN2vuMNUUhJrSTEX3-17" target="DdYxN2vuMNUUhJrSTEX3-8">
          <mxGeometry width="50" height="50" relative="1" as="geometry">
            <mxPoint x="270.0000000000001" y="280" as="sourcePoint" />
            <mxPoint x="320" y="200" as="targetPoint" />
          </mxGeometry>
        </mxCell>
        <mxCell id="DdYxN2vuMNUUhJrSTEX3-21" value="" style="endArrow=none;html=1;rounded=0;fontSize=12;exitX=1;exitY=0.5;exitDx=0;exitDy=0;entryX=0;entryY=0.5;entryDx=0;entryDy=0;" edge="1" parent="1" source="DdYxN2vuMNUUhJrSTEX3-16" target="DdYxN2vuMNUUhJrSTEX3-8">
          <mxGeometry width="50" height="50" relative="1" as="geometry">
            <mxPoint x="270.0000000000001" y="210" as="sourcePoint" />
            <mxPoint x="320" y="200" as="targetPoint" />
          </mxGeometry>
        </mxCell>
        <mxCell id="DdYxN2vuMNUUhJrSTEX3-22" value="&lt;font style=&quot;font-size: 16px;&quot;&gt;Contact View&lt;/font&gt;" style="whiteSpace=wrap;html=1;" vertex="1" parent="1">
          <mxGeometry x="260" y="310" width="150" height="60" as="geometry" />
        </mxCell>
        <mxCell id="DdYxN2vuMNUUhJrSTEX3-24" value="" style="endArrow=none;html=1;rounded=0;fontSize=12;entryX=0.5;entryY=1;entryDx=0;entryDy=0;exitX=0.5;exitY=0;exitDx=0;exitDy=0;" edge="1" parent="1" source="DdYxN2vuMNUUhJrSTEX3-22" target="DdYxN2vuMNUUhJrSTEX3-8">
          <mxGeometry width="50" height="50" relative="1" as="geometry">
            <mxPoint x="270.0000000000001" y="280" as="sourcePoint" />
            <mxPoint x="330" y="210" as="targetPoint" />
          </mxGeometry>
        </mxCell>
        <mxCell id="DdYxN2vuMNUUhJrSTEX3-25" value="&lt;font style=&quot;font-size: 16px;&quot;&gt;Chat View&lt;/font&gt;" style="whiteSpace=wrap;html=1;" vertex="1" parent="1">
          <mxGeometry x="440" y="310" width="150" height="60" as="geometry" />
        </mxCell>
        <mxCell id="DdYxN2vuMNUUhJrSTEX3-26" value="" style="endArrow=none;html=1;rounded=0;fontSize=12;exitX=1;exitY=0.5;exitDx=0;exitDy=0;entryX=0.5;entryY=0;entryDx=0;entryDy=0;" edge="1" parent="1" target="DdYxN2vuMNUUhJrSTEX3-25">
          <mxGeometry width="50" height="50" relative="1" as="geometry">
            <mxPoint x="425.0000000000001" y="240" as="sourcePoint" />
            <mxPoint x="515" y="305" as="targetPoint" />
          </mxGeometry>
        </mxCell>
      </root>
    </mxGraphModel>
  </diagram>
</mxfile>
